<?xml version="1.0" encoding="utf-8"?>
<!-- Generator: Adobe Illustrator 19.2.1, SVG Export Plug-In . SVG Version: 6.00 Build 0)  -->
<svg version="1.1" id="图层_1" xmlns="http://www.w3.org/2000/svg" xmlns:xlink="http://www.w3.org/1999/xlink" x="0px" y="0px"
	 viewBox="0 0 3000 640" style="enable-background:new 0 0 3000 640;" xml:space="preserve">
<style type="text/css">
	.st0{fill:none;}
	.st1{fill:#FFFFFF;}
</style>
<g>
	<rect class="st0" width="3000" height="634.2"/>
	<path class="st1" d="M18.9,42.9h91.2c24.3,0,62.4,8.7,62.4,60c0,37.5-24.6,58.8-67.2,58.8H32.1v95.4H18.9V42.9z M32.1,150.3h75.3
		c38.7,0,51.9-25.5,51.9-47.7c0-15.9-7.2-48.3-50.1-48.3H32.1V150.3z"/>
	<path class="st1" d="M208.2,42.9v214.2h-11.4V42.9H208.2z"/>
	<path class="st1" d="M358.2,228.6c0,9,0,18.6,10.2,18.6c2.1,0,4.8-0.3,8.4-0.9v9.6c-3.3,0.6-6.3,1.2-9.3,1.2
		c-18,0-20.7-9.9-20.7-22.5v-8.1h-0.6c-7.2,18.3-27.9,34.2-57.3,34.2c-29.1,0-51.6-11.1-51.6-43.5c0-36,31.2-43.5,56.7-45.6
		c51-3.6,53.1-6.9,53.1-32.1c0-6.9-7.8-30.3-42.9-30.3c-27.6,0-45.9,14.4-47.4,41.1h-11.4c1.5-33.9,22.5-51,58.8-51
		c27,0,54,8.4,54,40.2V228.6z M346.8,169.5c-9,10.2-33.6,9-55.8,12c-27,3-42.3,12.6-42.3,35.7c0,18.6,13.5,33.6,40.5,33.6
		c51.9,0,57.6-44.4,57.6-52.5V169.5z"/>
	<path class="st1" d="M510.6,150.6c-2.1-27.3-24.3-41.4-52.2-41.4c-38.7,0-59.4,34.2-59.4,69.3c0,41.7,19.5,72.3,59.4,72.3
		c28.8,0,49.8-19.8,53.7-48h11.4c-5.1,36.9-31.8,57.9-65.1,57.9c-50.1,0-70.8-39.3-70.8-82.2c0-42.9,25.2-79.2,70.8-79.2
		c33.3,0,60.3,16.2,63.6,51.3H510.6z"/>
	<path class="st1" d="M554.7,181.5c-0.6,36.3,18.6,69.3,56.7,69.3c29.1,0,49.8-17.4,55.2-45.9H678c-6,36-30,55.8-66.6,55.8
		c-45,0-68.7-35.4-68.1-78c-0.6-42.3,21.6-83.4,68.1-83.4c48.3,0,69.9,38.1,67.8,82.2H554.7z M667.8,171.6
		c-0.6-32.4-21-62.4-56.4-62.4c-34.2,0-54.3,31.8-56.7,62.4H667.8z"/>
	<path class="st1" d="M711.3,205.8c1.8,28.5,23.1,45,51,45c20.1,0,48.9-6,48.9-32.7c0-26.1-26.4-30-52.8-35.4
		c-26.7-5.4-53.1-12.3-53.1-43.8c0-30.6,29.7-39.6,55.8-39.6c32.7,0,57,14.1,57,49.2h-11.4c-0.3-27.9-19.8-39.3-45.6-39.3
		c-21,0-44.4,7.8-44.4,29.7c0,24.6,26.4,28.5,51.3,33.9c30.6,5.7,54.6,12.9,54.6,45.3c0,33.3-33.3,42.6-60.3,42.6
		c-35.1,0-61.5-18.9-62.4-54.9H711.3z"/>
</g>
<g>
</g>
<g>
</g>
<g>
</g>
<g>
</g>
<g>
</g>
<g>
</g>
<g>
</g>
<g>
</g>
<g>
</g>
<g>
</g>
<g>
</g>
<g>
</g>
<g>
</g>
<g>
</g>
<g>
</g>
</svg>
